<svg width="131" height="175" viewBox="0 0 131 175" fill="none" xmlns="http://www.w3.org/2000/svg">
<path d="M87.3265 54.6875V5.46875C87.3265 2.44727 84.8839 0 81.8682 0H70.9515C67.9358 0 65.4932 2.44727 65.4932 5.46875V55.689C67.2057 55.0806 69.0206 54.6875 70.9413 54.6875H87.3265ZM130.993 87.4966C130.99 75.4175 121.216 65.625 109.163 65.625H70.9072C67.9119 65.625 65.4829 68.0415 65.4829 71.0425V71.2339C65.4829 80.2129 72.7494 87.5 81.7113 87.5H93.7401C97.0423 87.5 98.2432 88.7236 98.2432 90.2344V95.7715C98.2432 97.2378 97.0185 98.4307 95.555 98.5059C80.3671 99.2852 73.667 106.952 62.7879 123.303L60.6353 126.54C60.4367 126.839 60.1813 127.096 59.8836 127.295C59.586 127.495 59.2519 127.634 58.9006 127.705C58.5492 127.775 58.1874 127.776 57.8359 127.706C57.4844 127.636 57.15 127.498 56.852 127.299L52.3113 124.264C52.013 124.065 51.7568 123.809 51.5573 123.511C51.3578 123.212 51.2189 122.878 51.1486 122.526C51.0783 122.174 51.0779 121.811 51.1474 121.459C51.217 121.107 51.3551 120.772 51.554 120.473L53.7066 117.236C59.0728 109.17 64.0092 102.45 69.8462 97.3848C63.9546 95.5015 59.1342 91.1914 56.5859 85.6099C54.3377 86.7754 51.8235 87.4966 49.125 87.4966H38.2083C33.9986 87.4966 30.1948 85.8525 27.2917 83.231C24.3851 85.856 20.5813 87.5 16.375 87.5H5.45833C3.53427 87.5 1.71596 87.1069 0 86.4917V113.128C0 124.732 4.59865 135.857 12.7896 144.064L21.8299 153.125V175H109.156V153.139L121.407 140.861C127.55 134.705 131.001 126.355 131 117.65L130.993 87.4966ZM120.073 56.7041V16.4062C120.073 13.3848 117.63 10.9375 114.615 10.9375H103.698C100.682 10.9375 98.2398 13.3848 98.2398 16.4062V54.6875H109.156C113.005 54.6875 116.641 55.477 120.073 56.7041ZM5.45833 76.5625H16.375C19.3907 76.5625 21.8333 74.1152 21.8333 71.0938V27.3438C21.8333 24.3223 19.3907 21.875 16.375 21.875H5.45833C2.4426 21.875 0 24.3223 0 27.3438V71.0938C0 74.1152 2.4426 76.5625 5.45833 76.5625ZM38.2049 76.5625H49.1216C52.1373 76.5625 54.5799 74.1152 54.5799 71.0938V16.4062C54.5799 13.3848 52.1373 10.9375 49.1216 10.9375H38.2049C35.1892 10.9375 32.7466 13.3848 32.7466 16.4062V71.0938C32.7466 74.1152 35.1892 76.5625 38.2049 76.5625Z" fill="#4F4F4F"/>
</svg>
