<svg width="164" height="175" viewBox="0 0 164 175" fill="none" xmlns="http://www.w3.org/2000/svg">
<path d="M120.842 4.29252e-08C127.447 -0.000392569 133.803 2.69247 138.608 7.52761C143.414 12.3628 146.306 18.9747 146.694 26.0105L146.737 27.6316V119.737H153.211C158.795 119.737 163.396 124.268 163.948 130.071L164 131.25V147.368C164 154.416 161.477 161.198 156.946 166.326C152.414 171.454 146.218 174.54 139.624 174.954L138.105 175H51.7895C45.1845 175 38.829 172.308 34.0234 167.472C29.2178 162.637 26.3254 156.025 25.9379 148.989L25.8947 147.368V55.2632H10.7895C8.11836 55.2645 5.54175 54.2084 3.55823 52.2995C1.57472 50.3905 0.325311 47.7642 0.0517899 44.9289L4.0227e-08 43.75V27.6316C-0.000367893 20.5836 2.52323 13.8018 7.05445 8.67391C11.5857 3.54599 17.782 0.459536 24.3756 0.0460537L25.8947 4.29252e-08H120.842ZM146.737 138.158H69.0526V147.368C69.0526 150.592 68.5347 153.696 67.5853 156.579H138.105C140.395 156.579 142.59 155.609 144.209 153.881C145.827 152.154 146.737 149.811 146.737 147.368V138.158ZM86.3158 82.8947H69.0526C66.8526 82.8973 64.7366 83.7963 63.1368 85.4078C61.5371 87.0194 60.5744 89.2219 60.4455 91.5655C60.3165 93.909 61.0311 96.2167 62.4431 98.0169C63.8552 99.8171 65.8581 100.974 68.0427 101.251L69.0526 101.316H86.3158C88.5158 101.313 90.6319 100.414 92.2316 98.8027C93.8314 97.1912 94.794 94.9886 94.923 92.645C95.0519 90.3015 94.3373 87.9939 92.9253 86.1937C91.5133 84.3934 89.5103 83.2365 87.3257 82.9592L86.3158 82.8947ZM103.579 46.0526H69.0526C66.7634 46.0526 64.5679 47.023 62.9492 48.7503C61.3305 50.4776 60.4211 52.8204 60.4211 55.2632C60.4211 57.7059 61.3305 60.0487 62.9492 61.776C64.5679 63.5033 66.7634 64.4737 69.0526 64.4737H103.579C105.868 64.4737 108.064 63.5033 109.682 61.776C111.301 60.0487 112.211 57.7059 112.211 55.2632C112.211 52.8204 111.301 50.4776 109.682 48.7503C108.064 47.023 105.868 46.0526 103.579 46.0526ZM25.8947 18.4211C23.6055 18.4211 21.41 19.3914 19.7913 21.1188C18.1726 22.8461 17.2632 25.1888 17.2632 27.6316V36.8421H25.8947V18.4211Z" fill="#4F4F4F"/>
</svg>
