<svg width="164" height="175" viewBox="0 0 164 175" fill="none" xmlns="http://www.w3.org/2000/svg">
<path d="M70.7885 0L10.9372 18.3955L0 59.3879L17.7726 51.4667L21.6763 49.7291L22.6111 53.8931L25.8829 68.4979L28.2779 79.1477L20.1451 71.8575L14.267 66.5848L3.71567 78.6584L56.3106 129.425L59.9212 114.236L62.7368 102.338L66.6282 113.933L87.0893 175L146.893 165.179L164 89.425L132.38 33.9108L70.7885 0ZM49.2176 18.6176L38.8177 33.514L37.6024 60.928L27.4366 27.728L49.2176 18.6176ZM55.8899 53.4847L98.1896 111.437L137.417 124.083L97.2667 123.768L55.8899 75.9871V53.4855V53.4847ZM14.8866 114.692L67.2826 171.851L65.2024 147.261L14.8866 114.692Z" fill="white"/>
</svg>
