<svg width="164" height="175" viewBox="0 0 164 175" fill="none" xmlns="http://www.w3.org/2000/svg">
<path fill-rule="evenodd" clip-rule="evenodd" d="M135.266 30.9273C138.546 26.4698 139.83 20.9559 138.837 15.5981C137.843 10.2402 134.653 5.47699 129.967 2.35566L126.428 0L82.0145 60.328L37.5922 0L34.0536 2.35566C29.3693 5.47825 26.1806 10.2421 25.1885 15.5999C24.1963 20.9576 25.4821 26.4708 28.7629 30.9273L66.2117 81.7916L50.6764 102.886C41.9512 100.23 32.5197 100.594 24.0488 103.911C15.5779 107.229 8.61283 113.287 4.38446 121.016C0.156091 128.745 -1.06336 137.646 0.941607 146.147C2.94658 154.649 8.04689 162.202 15.3412 167.473C22.6355 172.744 31.6543 175.393 40.8037 174.952C49.9531 174.511 58.6441 171.009 65.3408 165.064C72.0376 159.118 76.309 151.113 77.4001 142.463C78.4913 133.813 76.332 125.074 71.3038 117.791L82.0059 103.263L92.708 117.775C87.6758 125.055 85.5114 133.792 86.5972 142.442C87.683 151.093 91.9492 159.1 98.6419 165.049C105.335 170.998 114.023 174.505 123.172 174.951C132.32 175.398 141.34 172.755 148.638 167.488C155.936 162.222 161.041 154.673 163.052 146.173C165.064 137.674 163.851 128.772 159.629 121.04C155.406 113.309 148.446 107.246 139.978 103.922C131.51 100.599 122.08 100.229 113.353 102.878L97.8174 81.7916L135.266 30.9273ZM25.8975 138.081C25.8975 136.465 26.2324 134.864 26.883 133.37C27.5336 131.876 28.4872 130.519 29.6894 129.376C30.8915 128.232 32.3187 127.325 33.8894 126.707C35.4601 126.088 37.1435 125.77 38.8436 125.77C40.5437 125.77 42.2272 126.088 43.7979 126.707C45.3686 127.325 46.7957 128.232 47.9979 129.376C49.2001 130.519 50.1537 131.876 50.8043 133.37C51.4549 134.864 51.7897 136.465 51.7897 138.081C51.7897 141.347 50.4258 144.478 47.9979 146.787C45.57 149.096 42.2771 150.393 38.8436 150.393C35.4101 150.393 32.1172 149.096 29.6894 146.787C27.2615 144.478 25.8975 141.347 25.8975 138.081ZM112.205 138.081C112.205 134.816 113.569 131.684 115.997 129.376C118.424 127.067 121.717 125.77 125.151 125.77C128.584 125.77 131.877 127.067 134.305 129.376C136.733 131.684 138.097 134.816 138.097 138.081C138.097 141.347 136.733 144.478 134.305 146.787C131.877 149.096 128.584 150.393 125.151 150.393C121.717 150.393 118.424 149.096 115.997 146.787C113.569 144.478 112.205 141.347 112.205 138.081Z" fill="white"/>
</svg>
